<?xml version="1.0" standalone="no"?>
<!DOCTYPE svg PUBLIC "-//W3C//DTD SVG 20010904//EN"
 "http://www.w3.org/TR/2001/REC-SVG-20010904/DTD/svg10.dtd">
<svg version="1.0" xmlns="http://www.w3.org/2000/svg"
 width="901.000000pt" height="901.000000pt" viewBox="0 0 901.000000 901.000000"
 preserveAspectRatio="xMidYMid meet">
<metadata>
Created by potrace 1.14, written by Peter Selinger 2001-2017
</metadata>
<g transform="translate(0.000000,901.000000) scale(0.100000,-0.100000)"
fill="#000000" stroke="none">
<path d="M3170 7065 l0 -1145 -1145 0 -1145 0 0 -110 0 -110 1145 0 1145 0 0
-1145 0 -1145 -1145 0 -1145 0 0 -110 0 -110 1145 0 1145 0 0 -1145 0 -1145
110 0 110 0 0 1145 0 1145 1145 0 1145 0 0 -1145 0 -1145 110 0 110 0 0 1145
0 1145 1145 0 1145 0 0 110 0 110 -1145 0 -1145 0 0 1145 0 1145 1145 0 1145
0 0 110 0 110 -1145 0 -1145 0 0 1145 0 1145 -110 0 -110 0 0 -1145 0 -1145
-1145 0 -1145 0 0 1145 0 1145 -110 0 -110 0 0 -1145z m2510 -2510 l0 -1145
-1145 0 -1145 0 0 1145 0 1145 1145 0 1145 0 0 -1145z"/>
<path d="M6452 5190 c-19 -12 -40 -37 -49 -57 -30 -72 -16 -93 240 -351 l231
-232 -236 -238 c-201 -202 -237 -243 -243 -274 -15 -81 62 -158 143 -143 32 6
72 41 275 243 l237 236 238 -236 c196 -195 243 -238 272 -243 110 -20 184 109
113 197 -15 18 -119 126 -232 241 -113 114 -207 211 -209 215 -1 4 104 117
234 250 l236 243 -4 55 c-4 42 -10 59 -31 78 -32 29 -85 42 -123 29 -14 -5
-131 -114 -260 -243 l-234 -235 -232 231 c-128 128 -243 237 -255 243 -33 17
-74 13 -111 -9z"/>
<path d="M6924 2801 c-227 -37 -446 -195 -552 -399 -68 -131 -86 -207 -86
-357 0 -108 4 -143 23 -205 81 -262 269 -450 531 -531 108 -34 302 -34 410 0
262 81 451 269 531 531 33 109 33 303 0 410 -43 138 -101 237 -197 333 -93 94
-195 155 -329 196 -78 24 -247 35 -331 22z m296 -162 c202 -59 359 -217 421
-424 28 -91 30 -243 5 -330 -61 -210 -231 -379 -441 -440 -80 -24 -239 -23
-320 0 -210 60 -379 229 -440 440 -24 81 -24 239 0 320 100 342 442 533 775
434z"/>
<path d="M3953 2685 c-58 -25 -89 -104 -62 -158 6 -12 115 -127 243 -255 l231
-232 -235 -234 c-244 -243 -262 -267 -246 -329 3 -14 17 -38 29 -53 19 -22 34
-28 80 -32 l56 -4 242 236 c134 130 247 235 251 234 4 -2 106 -100 225 -219
120 -119 229 -223 243 -232 90 -61 218 38 180 138 -6 17 -114 133 -243 262
l-232 233 237 237 c201 202 237 244 243 275 15 82 -61 158 -143 143 -31 -6
-73 -43 -275 -243 l-237 -236 -217 214 c-120 118 -219 218 -221 223 -6 12 -79
47 -99 47 -10 -1 -33 -7 -50 -15z"/>
</g>
</svg>
